G04 Layer: BottomSolderMaskLayer*
G04 EasyEDA v6.3.43, 2020-05-24T14:51:43+02:00*
G04 8b069e2c24b14efe805d348ad6be2aff,234966f79ee84ceb97ee69e44186daaf,10*
G04 Gerber Generator version 0.2*
G04 Scale: 100 percent, Rotated: No, Reflected: No *
G04 Dimensions in millimeters *
G04 leading zeros omitted , absolute positions ,3 integer and 3 decimal *
%FSLAX33Y33*%
%MOMM*%
G90*
G71D02*

%ADD50C,1.503197*%
%ADD54C,2.003196*%
%ADD68C,1.823187*%
%ADD74C,1.543202*%

%LPD*%
G54D50*
G01X2296Y21399D02*
G01X1396Y21399D01*
G01X2296Y28638D02*
G01X1396Y28638D01*
G54D54*
G01X40767Y29464D03*
G36*
G01X37226Y28463D02*
G01X37226Y30464D01*
G01X39227Y30464D01*
G01X39227Y28463D01*
G01X37226Y28463D01*
G37*
G01X46482Y29464D03*
G36*
G01X42941Y28463D02*
G01X42941Y30464D01*
G01X44942Y30464D01*
G01X44942Y28463D01*
G01X42941Y28463D01*
G37*
G54D50*
G01X4546Y27429D03*
G01X4546Y22588D03*
G54D54*
G01X33428Y29591D03*
G01X20927Y29591D03*
G01X23428Y29591D03*
G01X25928Y29591D03*
G01X28427Y29591D03*
G01X30927Y29591D03*
G54D68*
G01X24511Y4953D03*
G01X46482Y4953D03*
G36*
G01X50662Y28818D02*
G01X50662Y30363D01*
G01X52207Y30363D01*
G01X52207Y28818D01*
G01X50662Y28818D01*
G37*
G54D74*
G01X51435Y27051D03*
G01X51435Y21971D03*
G01X51435Y24511D03*
G01X51435Y16891D03*
G01X51435Y19431D03*
G01X51435Y11811D03*
G01X51435Y14351D03*
G01X74295Y14351D03*
G01X74295Y11811D03*
G01X74295Y19431D03*
G01X74295Y16891D03*
G01X74295Y24511D03*
G01X74295Y21971D03*
G01X74295Y27051D03*
G36*
G01X73522Y28818D02*
G01X73522Y30363D01*
G01X75067Y30363D01*
G01X75067Y28818D01*
G01X73522Y28818D01*
G37*
M00*
M02*
