G04 Layer: TopPasteMaskLayer*
G04 EasyEDA v6.3.43, 2020-05-24T14:51:43+02:00*
G04 8b069e2c24b14efe805d348ad6be2aff,234966f79ee84ceb97ee69e44186daaf,10*
G04 Gerber Generator version 0.2*
G04 Scale: 100 percent, Rotated: No, Reflected: No *
G04 Dimensions in millimeters *
G04 leading zeros omitted , absolute positions ,3 integer and 3 decimal *
%FSLAX33Y33*%
%MOMM*%
G90*
G71D02*

%ADD16C,0.399999*%
%ADD18R,1.803400X0.406400*%
%ADD19R,0.999998X1.099998*%
%ADD20R,2.599995X1.299997*%
%ADD21R,1.299997X2.599995*%
%ADD22R,1.599997X3.299993*%
%ADD23R,1.550010X0.999998*%
%ADD24R,1.999996X0.450012*%
%ADD25R,1.199896X1.599997*%
%ADD26R,0.999998X1.550010*%
%ADD27R,1.399997X2.699995*%
%ADD28R,1.099998X0.999998*%
%ADD29R,0.499999X0.799998*%
%ADD30R,0.999998X0.550012*%
%ADD31R,1.299997X0.699999*%
%ADD32R,1.599946X0.519989*%
%ADD33R,0.599948X1.599946*%
%ADD34R,1.599997X0.519989*%
%ADD35R,1.199998X1.899996*%
%ADD36R,0.480060X1.299997*%
%ADD37R,3.499866X2.499995*%
%ADD38R,1.899996X1.199998*%
%ADD39R,1.199998X2.699995*%

%LPD*%
G54D16*
G01X30793Y17866D02*
G01X31893Y17866D01*
G01X30793Y17216D02*
G01X31893Y17216D01*
G01X30793Y16565D02*
G01X31893Y16565D01*
G01X30793Y15915D02*
G01X31893Y15915D01*
G01X37194Y17866D02*
G01X38294Y17866D01*
G01X37194Y17216D02*
G01X38294Y17216D01*
G01X37194Y16565D02*
G01X38294Y16565D01*
G01X37194Y15915D02*
G01X38294Y15915D01*
G54D18*
G01X12397Y18404D03*
G01X12397Y17754D03*
G01X12397Y17104D03*
G01X12397Y16453D03*
G01X12397Y15804D03*
G01X12397Y15153D03*
G01X12397Y14503D03*
G01X12397Y13853D03*
G01X6398Y13853D03*
G01X6398Y14503D03*
G01X6398Y15153D03*
G01X6398Y15804D03*
G01X6398Y16453D03*
G01X6398Y17104D03*
G01X6398Y17754D03*
G01X6398Y18404D03*
G54D19*
G01X13959Y3429D03*
G01X15759Y3429D03*
G01X47000Y11557D03*
G01X45200Y11557D03*
G54D20*
G01X48006Y20443D03*
G01X48006Y23244D03*
G54D21*
G01X4448Y10541D03*
G01X1647Y10541D03*
G54D22*
G01X25325Y10668D03*
G01X31825Y10668D03*
G01X37412Y3429D03*
G01X30913Y3429D03*
G01X61923Y3429D03*
G01X55424Y3429D03*
G01X70051Y20193D03*
G01X63552Y20193D03*
G01X70813Y12446D03*
G01X64314Y12446D03*
G54D23*
G01X13462Y24367D03*
G01X13462Y22368D03*
G01X9398Y24367D03*
G01X9398Y22368D03*
G54D20*
G01X44069Y20443D03*
G01X44069Y23244D03*
G54D24*
G01X5330Y23729D03*
G01X5330Y24379D03*
G01X5330Y25029D03*
G01X5330Y25679D03*
G01X5330Y26329D03*
G54D25*
G01X1019Y23423D03*
G01X1035Y26702D03*
G54D26*
G01X9414Y4191D03*
G01X11413Y4191D03*
G01X57928Y14859D03*
G01X59927Y14859D03*
G54D27*
G01X22311Y10414D03*
G01X17311Y10414D03*
G54D28*
G01X40132Y22059D03*
G01X40132Y23659D03*
G01X37465Y22059D03*
G01X37465Y23659D03*
G54D19*
G01X32473Y25273D03*
G01X34073Y25273D03*
G01X6819Y10541D03*
G01X8419Y10541D03*
G54D29*
G01X54363Y14478D03*
G01X55363Y14478D03*
G54D30*
G01X34674Y23428D03*
G01X34674Y22479D03*
G01X34674Y21529D03*
G01X31873Y21529D03*
G01X31873Y22479D03*
G01X31873Y23428D03*
G54D31*
G01X7190Y1705D03*
G01X1191Y1705D03*
G01X7190Y5406D03*
G01X1191Y5406D03*
G54D23*
G01X27813Y16272D03*
G01X27813Y18271D03*
G01X9398Y28939D03*
G01X9398Y26940D03*
G54D32*
G01X25935Y3703D03*
G01X25943Y2872D03*
G54D33*
G01X24511Y2260D03*
G54D32*
G01X23078Y2872D03*
G54D34*
G01X23073Y3703D03*
G54D32*
G01X47906Y3703D03*
G01X47914Y2872D03*
G54D33*
G01X46482Y2260D03*
G54D32*
G01X45049Y2872D03*
G54D34*
G01X45044Y3703D03*
G54D35*
G01X16459Y27432D03*
G01X13259Y27432D03*
G54D26*
G01X16747Y13843D03*
G01X14748Y13843D03*
G01X3285Y15621D03*
G01X1286Y15621D03*
G54D36*
G01X21082Y15506D03*
G01X22352Y15506D03*
G01X23622Y15506D03*
G01X24892Y15506D03*
G01X24892Y21323D03*
G01X23622Y21323D03*
G01X22352Y21323D03*
G01X21082Y21323D03*
G54D37*
G01X22987Y18415D03*
G54D35*
G01X37516Y11430D03*
G01X40716Y11430D03*
G54D38*
G01X27559Y24332D03*
G01X27559Y21132D03*
G54D35*
G01X14172Y10541D03*
G01X10972Y10541D03*
G01X17220Y6731D03*
G01X14020Y6731D03*
G01X44755Y15875D03*
G01X47955Y15875D03*
G54D39*
G01X17982Y18542D03*
G01X14783Y18542D03*
M00*
M02*
