;Layer: Drill PTH
;EasyEDA v6.3.43, 2020-05-24T14:51:43+02:00
;8b069e2c24b14efe805d348ad6be2aff,234966f79ee84ceb97ee69e44186daaf,10
;Gerber Generator version 0.2
M48
METRIC,LZ,000.000
;Holesize 1 = 0.305 METRIC
T01C0.305
;Holesize 2 = 0.701 METRIC
T02C0.701
;Holesize 3 = 0.901 METRIC
T03C0.901
;Holesize 4 = 1.021 METRIC
T04C1.021
;Holesize 5 = 1.199 METRIC
T05C1.199
;Holesize 6 = 1.200 METRIC
T06C1.200
%
G05
G90
T01
X+029591Y+028575
X+008128Y+016510
X+009779Y+019558
X+019177Y+020447
X+022479Y+026670
X+057912Y+025146
X+011938Y+021336
X+021717Y+025019
X+058801Y+026924
X+061849Y+025273
X+069215Y+023241
X+040386Y+004572
X+048895Y+013843
X+065405Y+007366
X+060071Y+009017
X+026670Y+001524
X+033401Y+001651
X+046482Y+002260
X+053721Y+002260
X+059436Y+023114
X+027813Y+002540
X+039878Y+001397
X+053975Y+006604
X+062103Y+022479
X+058547Y+012319
X+061341Y+010668
X+067818Y+012700
X+040005Y+005969
X+022225Y+005588
X+045044Y+004699
X+049403Y+007493
X+014605Y+021082
X+014605Y+013970
X+038735Y+022860
X+028194Y+022860
X+035941Y+024130
X+027305Y+028448
X+049403Y+024892
X+048895Y+026162
X+070104Y+024384
X+071120Y+015748
X+026543Y+022098
X+024384Y+024130
X+048768Y+028321
X+010287Y+001778
X+023749Y+008636
X+027305Y+010668
X+029972Y+020193
X+025781Y+021082
X+001524Y+013335
X+024130Y+013589
X+018598Y+015804
X+029337Y+011557
X+034925Y+010668
X+041148Y+017399
X+041021Y+019939
X+017653Y+003937
X+020193Y+002540
X+043307Y+002872
X+045085Y+008636
X+028575Y+003703
X+041402Y+003193
X+022479Y+027940
X+033274Y+026543
X+025019Y+016637
X+027051Y+017145
X+031877Y+014732
X+039624Y+016383
X+009398Y+023368
X+013462Y+023368
X+008636Y+015804
X+010287Y+016256
X+017018Y+023495
X+018034Y+021463
X+016510Y+018796
X+018796Y+005715
X+043815Y+013208
X+046355Y+013208
X+048768Y+010414
X+049276Y+004826
X+039624Y+011430
X+036195Y+017272
X+033147Y+021590
X+033020Y+022860
X+030734Y+023241
X+017780Y+016637
X+020193Y+014351
X+054229Y+025273
X+061468Y+014859
X+034544Y+028448
X+027305Y+022479
T02
X+001446Y+021399G85X+002246Y+021399
X+001446Y+028638G85X+002246Y+028638
T03
X+004546Y+027429
X+004546Y+022588
X+051435Y+029591
X+051435Y+027051
X+051435Y+021971
X+051435Y+024511
X+051435Y+016891
X+051435Y+019431
X+051435Y+011811
X+051435Y+014351
X+074295Y+014351
X+074295Y+011811
X+074295Y+019431
X+074295Y+016891
X+074295Y+024511
X+074295Y+021971
X+074295Y+027051
X+074295Y+029591
T04
X+024511Y+004953
X+046482Y+004953
T05
X+033428Y+029591
X+020927Y+029591
X+023428Y+029591
X+025928Y+029591
X+028427Y+029591
X+030927Y+029591
T06
X+040767Y+029464
X+038227Y+029464
X+046482Y+029464
X+043942Y+029464
M30
